<svg width="149" height="121" viewBox="0 0 149 121" fill="none" xmlns="http://www.w3.org/2000/svg">
<rect x="34" y="49" width="80" height="72" rx="36" fill="#6C4C4C"/>
<rect x="41" y="55" width="66" height="59" rx="29.5" fill="#DABCBC"/>
<ellipse cx="20.7274" cy="56.4608" rx="13.6526" ry="16.6391" transform="rotate(-35 20.7274 56.4608)" fill="#6C4C4C"/>
<ellipse cx="20.9119" cy="56.3687" rx="8.50475" ry="10.3652" transform="rotate(-35 20.9119 56.3687)" fill="#DABCBC"/>
<ellipse cx="127.728" cy="56.4608" rx="13.6526" ry="16.6391" transform="rotate(35 127.728 56.4608)" fill="#6C4C4C"/>
<ellipse cx="53.5018" cy="22.9767" rx="16" ry="19.5" transform="rotate(-15 53.5018 22.9767)" fill="#6C4C4C"/>
<ellipse cx="53.3633" cy="23.0973" rx="11.2094" ry="13.6615" transform="rotate(-15 53.3633 23.0973)" fill="#DABCBC"/>
<ellipse cx="94.0031" cy="23.4533" rx="16" ry="19.5" transform="rotate(15 94.0031 23.4533)" fill="#6C4C4C"/>
<ellipse cx="94.3634" cy="23.0972" rx="11.2094" ry="13.6615" transform="rotate(15 94.3634 23.0972)" fill="#DABCBC"/>
<ellipse cx="127.912" cy="56.3688" rx="8.50475" ry="10.3652" transform="rotate(35 127.912 56.3688)" fill="#DABCBC"/>
</svg>
